<?xml version="1.0" encoding="UTF-8" standalone="no"?><!DOCTYPE svg PUBLIC "-//W3C//DTD SVG 1.1//EN" "http://www.w3.org/Graphics/SVG/1.1/DTD/svg11.dtd"><svg width="100%" height="100%" viewBox="0 0 2083 386" version="1.1" xmlns="http://www.w3.org/2000/svg" xmlns:xlink="http://www.w3.org/1999/xlink" xml:space="preserve" xmlns:serif="http://www.serif.com/" style="fill-rule:evenodd;clip-rule:evenodd;stroke-linejoin:round;stroke-miterlimit:2;"><g id="group_0"><path d="M2036.5,12.341c-109.548,61.162 -185.273,118.509 -213.354,161.575c-30.875,47.348 -25.087,119.247 13.074,162.427l4.28,4.842l6.722,-2.537c40.575,-15.316 69.91,-42.81 92.431,-86.633c5.752,-11.192 12.491,-14.488 21.73,-10.628c28.297,11.823 -24.059,85.773 -82.52,116.554l-11.027,5.806l2.832,2.001c85.177,60.183 206.25,-8.615 211.572,-120.222c0.131,-2.764 0.474,26.024 0.76,63.974c0.453,59.983 0.526,54.56 0.563,-41.5c0.023,-60.775 -0.207,-105.55 -0.511,-99.5l-0.552,11l-0.787,-13.976c-2.006,-35.645 -8.262,-86.12 -16.796,-135.524c-2.233,-12.925 -4.312,-24.962 -4.619,-26.75c-0.72,-4.18 1.471,-5.016 -23.798,9.091" style="fill:#fff;"/><path d="M1513.52,156.115c-119.308,17.374 -129.505,193.861 -12.91,223.438c43.964,11.152 95.226,-0.112 124.39,-27.333l5.5,-5.134l-29.39,-29.338l-5.277,4.617c-41.256,36.09 -117.314,18.821 -128.232,-29.115l-1.424,-6.25l176.59,0l0.603,-2.25c2.411,-8.999 -0.212,-43.368 -4.482,-58.713c-14.008,-50.335 -64.912,-78.726 -125.368,-69.922m1.48,41.93c-22.939,5.919 -39.842,22.216 -46.369,44.705l-1.523,5.25l131.892,0l-0,-2.606c-0,-33.613 -43.093,-57.904 -84,-47.349" style="fill:#fff;"/><path d="M168.25,157.066c-24.882,3.235 -47.201,16.144 -59.963,34.681l-3.787,5.501l-0.544,-37.248l-20.956,-0l0,219l20.897,0l0.338,-67.75c0.385,-77.204 0.092,-74.3 9.395,-93.195c29.273,-59.456 125.697,-52.358 141.898,10.445c2.838,11.001 3.404,25.544 3.438,88.25l0.034,62.25l21,0l0,-68.428c0,-73.412 -0.254,-78.089 -5.057,-93.072c-13.583,-42.369 -56.904,-66.907 -106.693,-60.434" style="fill:#fff;"/><path d="M424.25,156.996c-25.95,3.666 -49.942,17.953 -61.301,36.504l-2.449,4l-0.544,-37.5l-21.956,0l0,219l22,0l0.035,-64.75c0.047,-86.963 1.161,-92.415 23.465,-114.772c35.215,-35.3 102.2,-27.305 122.32,14.599c7.96,16.579 7.548,11.766 7.921,92.673l0.334,72.25l22.022,0l-0.656,-145.5l-2.694,-9.872c-12.683,-46.478 -57.28,-73.867 -108.497,-66.632" style="fill:#fff;"/><path d="M672.622,158.496c-119.685,24.796 -118.318,202.542 1.706,222.008c40.921,6.637 88.913,-8.905 111.098,-35.979l3.566,-4.352l-7.645,-6.102l-7.644,-6.102l-6.102,5.823c-56.232,53.668 -161.601,19.859 -161.601,-51.852c0,-1.892 1.947,-1.935 98.25,-2.185l98.25,-0.255l-0.125,-19.5c-0.452,-70.346 -59.015,-116.159 -129.753,-101.504m4.447,19.592c-37.839,7.423 -66.121,38.472 -70.725,77.645l-0.619,5.267l177.55,0l-0.695,-8.564c-4.208,-51.863 -51.229,-84.996 -105.511,-74.348" style="fill:#fff;"/><path d="M1119.5,158.477c-16.916,3.714 -31.836,13.265 -39.562,25.325c-3.449,5.384 -3.428,5.43 -4.936,-10.552l-1.251,-13.25l-42.751,0l-0,219l46,0l-0,-64.84c-0,-61.26 0.109,-65.266 1.972,-72.551c13.852,-54.162 80.388,-56.948 98.154,-4.109l2.353,7l0.6,134.5l45.828,0l0.314,-66.25l0.315,-66.25l2.33,-7c17.509,-52.607 82.905,-53.349 96.132,-1.09c1.903,7.519 2.002,11.188 2.002,74.25l-0,66.34l46,0l-0.02,-68.25c-0.023,-80.66 -0.564,-86.388 -10.078,-106.698c-27.398,-58.485 -117.939,-64.538 -152.797,-10.215c-4.063,6.331 -3.281,6.541 -7.756,-2.087c-13.636,-26.288 -49.348,-40.63 -82.849,-33.273" style="fill:#fff;"/><path d="M938,158.592c-25.981,4.564 -44.732,15.968 -55.315,33.639l-3.431,5.73l-0.729,-18.98l-0.728,-18.981l-19.797,-0l0,219l20.888,0l0.361,-69.25c0.4,-76.809 0.16,-73.861 7.297,-89.478c16.491,-36.084 61.809,-52.328 96.682,-34.657l5.109,2.59l1.582,-2.107c5.08,-6.768 8.474,-15.338 6.612,-16.699c-2.669,-1.951 -15.411,-7.118 -22.177,-8.991c-5.668,-1.57 -30.65,-2.818 -36.354,-1.816" style="fill:#fff;"/><path d="M1,269l0,110l21,0l0,-220l-21,0l0,110" style="fill:#fff;"/><path d="M1949.73,248.148c-1.443,1.293 -5.352,7.752 -8.686,14.352c-38.442,76.084 -129.173,112.131 -210.213,83.517c-15.004,-5.298 -18.601,-5.289 -21.364,0.055c-4.556,8.809 3.51,14.533 30.056,21.33c89.217,22.845 181.508,-19.571 220.253,-101.224c6.969,-14.688 0.059,-27.091 -10.046,-18.03" style="fill:#fff;"/></g></svg>