<?xml version="1.0" encoding="UTF-8" standalone="no"?><!DOCTYPE svg PUBLIC "-//W3C//DTD SVG 1.1//EN" "http://www.w3.org/Graphics/SVG/1.1/DTD/svg11.dtd"><svg width="100%" height="100%" viewBox="0 0 2051 720" version="1.1" xmlns="http://www.w3.org/2000/svg" xmlns:xlink="http://www.w3.org/1999/xlink" xml:space="preserve" xmlns:serif="http://www.serif.com/" style="fill-rule:evenodd;clip-rule:evenodd;stroke-linejoin:round;stroke-miterlimit:2;"><path d="M467.78,460.89c-0,0 139.46,-36.08 139.46,-197.62c0,-217.94 -261.28,-205.64 -261.28,-205.64l-282.9,1.37l0,602.41l114.03,0l0,-183.17l190.79,0l121.41,183.17l129.04,0l-150.55,-200.52Zm-119.33,-72.15l-171.36,0l0,-237.27l178.99,0c0,0 142.92,-0.11 142.92,118.63c0,118.74 -150.55,118.63 -150.55,118.63l0,0.01Z" style="fill:#fff;fill-rule:nonzero;"/><path d="M696.73,59l265.71,602.41l122.1,0l268.49,-602.41l-119.33,0l-210.21,489.3l-202.58,-489.3l-124.18,0Z" style="fill:#fff;fill-rule:nonzero;"/><rect x="1476.87" y="57.5" width="518.83" height="88.42" style="fill:#fff;"/><rect x="1476.87" y="315.24" width="518.83" height="88.42" style="fill:#fff;"/><rect x="1476.87" y="572.99" width="518.83" height="88.42" style="fill:#fff;"/></svg>